# xmcd
#
# Track frame offsets: 
#        150
#        7203
#        18101
#        33151
#        51092
#        61635
#        77096
#        92452
#        105600
#        119055
#        134251
#        145846
#        162407
#        176718
#        195495
#        208155
#        221129
#
# Disc length: 3125 seconds
#
# Revision: 0
# Processed by: cddbd v1.5.2PL0 Copyright (c) Steve Scherf et al.
# Submitted via: ExactAudioCopyFreeDBPlugin 1.0
#
DISCID=eb0c3311
DTITLE=Prescott Playboys, The - Take It Away Boys, Take It Away
DYEAR=1900
DGENRE=Country
TTITLE0=CD Dedication
TTITLE1=Boot Heel Drag
TTITLE2=Bubbles in My Beer
TTITLE3=No Letter Today
TTITLE4=Maiden's Prayer
TTITLE5=San Antonio Rose
TTITLE6=Right or Wrong
TTITLE7=Little Lisa Jane
TTITLE8=Home in San Antonio
TTITLE9=Deep Water
TTITLE10=Steel Guitar Rag
TTITLE11=Milk Cow Blues
TTITLE12=South of San Antone
TTITLE13=Westphalia Waltz
TTITLE14=Roly Poly
TTITLE15=Take Me Back to Tulsa
TTITLE16=Faded Love
EXTD=
EXTT0=
EXTT1=
EXTT2=
EXTT3=
EXTT4=
EXTT5=
EXTT6=
EXTT7=
EXTT8=
EXTT9=
EXTT10=
EXTT11=
EXTT12=
EXTT13=
EXTT14=
EXTT15=
EXTT16=
PLAYORDER=
